<?xml version="1.0" encoding="UTF-8" standalone="no"?>
<!-- Created with Inkscape (http://www.inkscape.org/) -->

<svg
   xmlns:dc="http://purl.org/dc/elements/1.1/"
   xmlns:cc="http://creativecommons.org/ns#"
   xmlns:rdf="http://www.w3.org/1999/02/22-rdf-syntax-ns#"
   xmlns:svg="http://www.w3.org/2000/svg"
   xmlns="http://www.w3.org/2000/svg"
   xmlns:sodipodi="http://sodipodi.sourceforge.net/DTD/sodipodi-0.dtd"
   xmlns:inkscape="http://www.inkscape.org/namespaces/inkscape"
   id="svg2"
   version="1.1"
   inkscape:version="0.91 r13725"
   xml:space="preserve"
   width="293.75"
   height="377.1875"
   viewBox="0 0 293.75 377.1875"
   sodipodi:docname="article.svg"><metadata
     id="metadata8"><rdf:RDF><cc:Work
         rdf:about=""><dc:format>image/svg+xml</dc:format><dc:type
           rdf:resource="http://purl.org/dc/dcmitype/StillImage" /><dc:title></dc:title></cc:Work></rdf:RDF></metadata><defs
     id="defs6" /><sodipodi:namedview
     pagecolor="#ffffff"
     bordercolor="#666666"
     borderopacity="1"
     objecttolerance="10"
     gridtolerance="10"
     guidetolerance="10"
     inkscape:pageopacity="0"
     inkscape:pageshadow="2"
     inkscape:window-width="1366"
     inkscape:window-height="692"
     id="namedview4"
     showgrid="false"
     fit-margin-top="0"
     fit-margin-left="0"
     fit-margin-right="0"
     fit-margin-bottom="0"
     inkscape:zoom="0.95353535"
     inkscape:cx="121.1771"
     inkscape:cy="177.9742"
     inkscape:window-x="0"
     inkscape:window-y="25"
     inkscape:window-maximized="1"
     inkscape:current-layer="g10" /><g
     id="g10"
     inkscape:groupmode="layer"
     inkscape:label="Document-1"
     transform="matrix(1.25,0,0,-1.25,-261.3229,694.2133)"><g
       id="g12"
       transform="matrix(-1,0,0,1,520.55732,-180.38136)"
       style="fill:#ffffff;fill-opacity:1"><g
         id="g14"
         style="fill:#ffffff;fill-opacity:1"><g
           id="g16"
           transform="translate(76.499,735.752)"
           style="fill:#ffffff;fill-opacity:1"><g
             id="g18"
             style="fill:#ffffff;fill-opacity:1"><path
               d="M 201.42857,0 33.57143,0 C 15.03044,0 0,-15.0109 0,-33.52778 L 0,-268.22222 C 0,-286.7391 15.03044,-301.75 33.57143,-301.75 l 167.85714,0 c 18.54099,0 33.57143,15.0109 33.57143,33.52778 l 0,234.69444 C 235,-15.0109 219.96956,0 201.42857,0 Z m -167.85714,-50.29167 83.92857,0 0,-16.76389 -83.92857,0 0,16.76389 z m 0,-33.52777 83.92857,0 0,-16.76389 -83.92857,0 0,16.76389 z m 0,-33.52778 83.92857,0 0,-16.76389 -83.92857,0 0,16.76389 z m 167.85714,-117.34722 -167.85714,0 0,16.76388 167.85714,0 0,-16.76388 z m 0,33.52777 -167.85714,0 0,16.76389 167.85714,0 0,-16.76389 z m 0,33.52778 -167.85714,0 0,16.76389 167.85714,0 0,-16.76389 z m 0,33.52778 -67.14286,0 0,83.81944 67.14286,0 0,-83.81944 z"
               style="fill:#ffffff;fill-opacity:1;fill-rule:nonzero;stroke:none"
               id="path20"
               inkscape:connector-curvature="0" /></g></g></g></g></g></svg>