<?xml version="1.0" encoding="UTF-8" standalone="no"?>
<svg
   xmlns:dc="http://purl.org/dc/elements/1.1/"
   xmlns:cc="http://creativecommons.org/ns#"
   xmlns:rdf="http://www.w3.org/1999/02/22-rdf-syntax-ns#"
   xmlns:svg="http://www.w3.org/2000/svg"
   xmlns="http://www.w3.org/2000/svg"
   xmlns:sodipodi="http://sodipodi.sourceforge.net/DTD/sodipodi-0.dtd"
   xmlns:inkscape="http://www.inkscape.org/namespaces/inkscape"
   viewBox="0 0 216 216"
   id="svg2"
   version="1.1"
   inkscape:version="0.91 r13725"
   sodipodi:docname="d20.svg">
  <metadata
     id="metadata10">
    <rdf:RDF>
      <cc:Work
         rdf:about="">
        <dc:format>image/svg+xml</dc:format>
        <dc:type
           rdf:resource="http://purl.org/dc/dcmitype/StillImage" />
      </cc:Work>
    </rdf:RDF>
  </metadata>
  <defs
     id="defs8" />
  <sodipodi:namedview
     pagecolor="#ffffff"
     bordercolor="#666666"
     borderopacity="1"
     objecttolerance="10"
     gridtolerance="10"
     guidetolerance="10"
     inkscape:pageopacity="0"
     inkscape:pageshadow="2"
     inkscape:window-width="1366"
     inkscape:window-height="692"
     id="namedview6"
     showgrid="false"
     inkscape:zoom="1.0925926"
     inkscape:cx="108"
     inkscape:cy="108"
     inkscape:window-x="0"
     inkscape:window-y="25"
     inkscape:window-maximized="1"
     inkscape:current-layer="svg2" />
  <path
     fill="none"
     stroke="#333"
     stroke-linejoin="round"
     stroke-width="12"
     d="M191.14,60 L191.14,156 L159.96,78z M159.96,78 L191.14,156 L108,168z M191.14,60 L159.96,78 L108,12z M191.14,156 L108,204 L108,168z M108,12 L159.96,78 L56.04,78z M159.96,78 L108,168 L56.04,78z M108,168 L108,204 L24.86,156z M108,12 L56.04,78 L24.86,60z M56.04,78 L108,168 L24.86,156z M56.04,78 L24.86,156 L24.86,60z"
     id="path4"
     style="stroke:#ffffff;stroke-opacity:1" />
</svg>
