<?xml version="1.0" encoding="UTF-8" standalone="no"?>
<svg
   xmlns:dc="http://purl.org/dc/elements/1.1/"
   xmlns:cc="http://creativecommons.org/ns#"
   xmlns:rdf="http://www.w3.org/1999/02/22-rdf-syntax-ns#"
   xmlns:svg="http://www.w3.org/2000/svg"
   xmlns="http://www.w3.org/2000/svg"
   xmlns:sodipodi="http://sodipodi.sourceforge.net/DTD/sodipodi-0.dtd"
   xmlns:inkscape="http://www.inkscape.org/namespaces/inkscape"
   height="311.93179pt"
   viewBox="-17 -17 553.20898 311.93179"
   width="553.2074pt"
   id="svg2"
   version="1.1"
   inkscape:version="0.91 r13725"
   sodipodi:docname="tag.svg">
  <metadata
     id="metadata12">
    <rdf:RDF>
      <cc:Work
         rdf:about="">
        <dc:format>image/svg+xml</dc:format>
        <dc:type
           rdf:resource="http://purl.org/dc/dcmitype/StillImage" />
        <dc:title></dc:title>
      </cc:Work>
    </rdf:RDF>
  </metadata>
  <defs
     id="defs10" />
  <sodipodi:namedview
     pagecolor="#ffffff"
     bordercolor="#666666"
     borderopacity="1"
     objecttolerance="10"
     gridtolerance="10"
     guidetolerance="10"
     inkscape:pageopacity="0"
     inkscape:pageshadow="2"
     inkscape:window-width="1366"
     inkscape:window-height="692"
     id="namedview8"
     showgrid="false"
     inkscape:zoom="0.54016578"
     inkscape:cx="344.24526"
     inkscape:cy="349.17957"
     inkscape:window-x="0"
     inkscape:window-y="25"
     inkscape:window-maximized="1"
     inkscape:current-layer="svg2"
     fit-margin-top="0"
     fit-margin-left="0"
     fit-margin-right="0"
     fit-margin-bottom="0" />
  <g
     id="g4135"
     transform="matrix(1.0412008,0,0,1.0412008,0.70041307,-12.151436)">
    <g
       style="fill:#ffffff;fill-opacity:1;stroke:#ffffff;stroke-width:26.18235207;stroke-miterlimit:4;stroke-dasharray:none;stroke-opacity:1"
       transform="matrix(0.64842925,0.64791043,-0.64791043,0.64842925,206.92079,-184.319)"
       id="g4159">
      <path
         style="fill:#ffffff;fill-opacity:1;stroke:#ffffff;stroke-width:26.18235207;stroke-miterlimit:4;stroke-dasharray:none;stroke-opacity:1"
         inkscape:connector-curvature="0"
         d="M 485.36719,1 282.125,0 282.00391,0 c -3.30469,0.0234375 -6.47657,1.320312 -8.85547,3.613281 L 17.789062,259.10156 c -23.609374,23.72266 -23.609374,62.0625 0,85.78516 L 153.94531,481.04687 c 23.72656,23.60547 62.06641,23.60547 85.78906,0 L 495.21875,225.55859 c 2.32422,-2.35547 3.625,-5.53906 3.61719,-8.85156 l -1,-203.23828 C 497.73047,6.625 492.21094,1.105469 485.36719,1 Z M 222.02734,463.33984 c -6.66797,6.70313 -15.73047,10.47266 -25.18359,10.47266 -9.45703,0 -18.52344,-3.76953 -25.1875,-10.47266 L 35.492188,327.17969 c -6.699219,-6.66407 -10.46875,-15.73438 -10.46875,-25.1875 0,-9.45313 3.769531,-18.51563 10.46875,-25.1836 L 287.24219,24.9375 l 185.65625,1 1,185.65625 z m 0,0"
         id="path4" />
      <path
         style="fill:#ffffff;fill-opacity:1;stroke:#ffffff;stroke-width:26.18235207;stroke-miterlimit:4;stroke-dasharray:none;stroke-opacity:1"
         inkscape:connector-curvature="0"
         d="m 351.32812,86.90625 c -28.82421,0.07422 -53.58984,20.48828 -59.16406,48.76562 -5.57031,28.28516 9.60156,56.56641 36.2461,67.56641 26.64453,10.99609 57.34765,1.65625 73.34765,-22.32422 16,-23.97656 12.84375,-55.91797 -7.53515,-76.30078 C 382.83594,93.261719 367.40625,86.890625 351.32813,86.90625 Z m 25.1875,85.78516 C 364.50781,184.63672 345.73828,186.4375 331.67187,177 c -14.0625,-9.44141 -19.5039,-27.49609 -13,-43.12891 6.5,-15.64062 23.14063,-24.51562 39.75391,-21.19921 16.60938,3.3164 28.56641,17.89453 28.56641,34.83593 0.004,9.45313 -3.76563,18.52344 -10.47656,25.1836 z m 0,0"
         id="path6" />
    </g>
  </g>
</svg>
